<?xml version="1.0" encoding="utf-8"?>
<!-- Generator: Adobe Illustrator 27.0.0, SVG Export Plug-In . SVG Version: 6.00 Build 0)  -->
<svg version="1.1" id="Layer_1" xmlns="http://www.w3.org/2000/svg" xmlns:xlink="http://www.w3.org/1999/xlink" x="0px" y="0px"
	 viewBox="0 0 253.8 277.8" style="enable-background:new 0 0 253.8 277.8;" xml:space="preserve">
<style type="text/css">
	.st0{fill:#00FFD4;}
</style>
<g>
	<path d="M218.7,153.3c0,17.6,0.1,35.3,0,52.9c-0.1,14.4-6.7,25-19.5,31.7c-4.9,2.6-10.1,3.5-15.6,3.5c-20.5,0-41,0-61.5,0
		c-15.1,0-30.1,0-45.2,0c-15.9-0.1-29.7-10.8-33.5-26.3c-0.7-2.7-1-5.5-1-8.3c-0.1-35.7-0.1-71.4,0-107.1
		c0-19.2,15.5-34.7,34.7-34.7c35.7,0,71.3,0,106.9,0c19.1,0,34.6,15.4,34.6,34.5C218.8,117.5,218.7,135.4,218.7,153.3z M204.4,153.3
		c0-17.7,0-35.4,0-53.1c0-11.8-8.8-20.8-20.6-20.8c-35.5,0-71,0-106.5,0c-11.7,0-20.6,9-20.6,20.6c0,35.4,0,70.9,0,106.3
		c0,11.8,8.9,20.7,20.7,20.7c35.4,0,70.8,0,106.2,0c12,0,20.8-8.9,20.8-20.9C204.4,188.6,204.4,171,204.4,153.3z"/>
	<path d="M12.9,125.5c0-17.6,0-35.2,0-52.8c0-15.5,10.2-29,25.1-33.2c3-0.8,6.3-1.3,9.5-1.3c35.5-0.1,71.1-0.1,106.6,0
		c3.9,0,6.9,2.4,7.5,5.9c0.6,3.5-1.4,6.9-4.7,7.9c-1.1,0.3-2.2,0.4-3.4,0.4c-35.2,0-70.5,0-105.7,0c-9.8,0-17.9,6.3-20,15.7
		c-0.4,1.6-0.5,3.4-0.5,5.1c0,35.2,0,70.5,0,105.7c0,3.1-1,5.6-3.8,7.1c-4.8,2.6-10.5-0.8-10.5-6.4c-0.1-8.4,0-16.7,0-25
		C12.9,145,12.9,135.2,12.9,125.5z"/>
</g>
<g>
	<path d="M95.7,200.1c-9.2,0-17.6-5.6-21.2-14.1c-3.6-8.5-1.8-18.5,4.7-25c9.2-9.3,18.5-18.6,27.8-27.8c6.9-6.8,17.2-8.6,26-4.5
		c8.8,4.1,14,13.2,13.2,22.8c-0.4,4.4-1.9,8.4-4.6,12c-1.2,1.5-2.8,1.9-4.1,0.9c-1.4-1-1.5-2.7-0.3-4.3c4.2-5.9,4.8-12.2,1.4-18.6
		c-3.4-6.4-9-9.6-16.3-9.3c-4.4,0.1-8.2,1.8-11.3,4.9c-9.3,9.2-18.5,18.4-27.7,27.7c-6.9,7-6.7,17.9,0.2,24.7
		c6.9,6.8,17.8,6.7,24.7-0.2c3-3,6-6.1,9.1-9.1c1.1-1.1,2.6-1.3,3.8-0.4c1.1,0.8,1.4,2.3,0.8,3.5c-0.2,0.3-0.4,0.6-0.6,0.8
		c-3.2,3.3-6.5,6.6-9.8,9.7C107,198.1,101.7,200,95.7,200.1z"/>
	<path d="M166.4,108.4c9.6,0,18,5.6,21.6,14.1c3.6,8.6,1.7,18.6-4.9,25.2c-9.2,9.2-18.4,18.4-27.6,27.6c-1.6,1.6-3.5,2.9-5.4,4
		c-9.4,5.1-21.2,2.8-28.2-5.3c-7-8.1-7.5-20.2-1.1-28.7c0.5-0.7,1.5-1.3,2.3-1.6c1.1-0.3,2.1,0.3,2.7,1.3c0.6,1.1,0.5,2.2-0.3,3.2
		c-1.7,2.3-2.9,4.8-3.4,7.7c-1.3,7.4,2.3,14.9,9,18.5c6.6,3.6,14.9,2.5,20.3-2.8c9.4-9.3,18.7-18.6,27.9-27.9
		c6.7-6.8,6.5-17.8-0.3-24.5c-6.8-6.8-17.7-6.8-24.6-0.1c-3.1,3-6,6.1-9.1,9.1c-0.5,0.5-1.2,0.9-1.9,1.1c-1.1,0.3-2.3-0.3-2.9-1.4
		c-0.6-1.1-0.4-2.4,0.5-3.4c3.1-3.1,6.2-6.2,9.3-9.3C155,110.7,160.5,108.5,166.4,108.4z"/>
</g>
<g>
	<path d="M190.7,175.9c1.8,0,3.6,0,5.3,0c0.2,0.1,0.4,0.1,0.6,0.1c6.6,0.5,12.8,2.4,18.4,5.8c11.1,6.8,17.8,16.5,20.2,29.3
		c0.3,1.6,0.4,3.1,0.6,4.7c0,1.8,0,3.6,0,5.3c-0.1,1-0.2,2-0.4,3c-1.4,10-5.8,18.6-13.2,25.4c-10.8,9.8-23.5,13.3-37.8,10.5
		c-10.4-2.1-18.8-7.6-25.2-16.1c-6.7-8.9-9.4-18.9-8.3-29.9c0.9-9,4.4-17,10.4-23.8c6.6-7.4,14.8-12.1,24.7-13.8
		C187.6,176.3,189.1,176.1,190.7,175.9z M197.5,237.7c0.3-0.1,0.5-0.2,0.7-0.2c5.8-1.5,9.3-6.8,8.6-12.8c-0.7-5.6-5.7-9.9-11.5-9.9
		c-1.6,0-3.2,0-4.7,0c-1.6,0-2.7-1.2-2.8-2.8c0-0.4,0-0.7,0-1.1c0-2.1,1.1-3.2,3.2-3.2c3.8,0,7.6,0,11.4,0c2.5,0,4.4-1.9,4.4-4.3
		c0-2.4-1.9-4.3-4.4-4.3c-1.3,0-2.7,0-4,0c-0.3,0-0.6,0-0.9-0.1c0-0.6,0-1,0-1.5c-0.1-2.2-1.7-3.9-3.9-4.2c-2.1-0.2-4.1,1.2-4.6,3.3
		c-0.1,0.6-0.1,1.3-0.1,2c0,0.5-0.1,0.6-0.6,0.8c-2.7,0.6-4.9,1.9-6.6,4.1c-2.3,2.8-2.7,6-2.5,9.5c0.4,5.2,4.3,9.6,9.4,10.4
		c2.2,0.3,4.5,0.2,6.7,0.2c1,0,1.8,0.2,2.4,1c0.7,0.9,0.9,1.9,0.4,3c-0.5,1.1-1.4,1.7-2.6,1.7c-4,0-7.9,0-11.9,0
		c-2.6,0-4.5,1.9-4.5,4.3c0,2.5,1.9,4.3,4.5,4.3c1.4,0,2.9,0,4.3,0c0.3,0,0.5,0,0.8,0c0,0.6,0,1,0,1.5c0.1,2.3,2,4.2,4.3,4.2
		c2.4,0,4.3-1.9,4.4-4.2C197.5,238.8,197.5,238.2,197.5,237.7z"/>
	<path class="st0" d="M197.5,237.7c0,0.6,0,1.1,0,1.6c-0.1,2.4-2,4.2-4.4,4.2c-2.3,0-4.2-1.9-4.3-4.2c0-0.5,0-0.9,0-1.5
		c-0.3,0-0.6,0-0.8,0c-1.4,0-2.9,0-4.3,0c-2.6,0-4.5-1.9-4.5-4.3c0-2.4,1.9-4.3,4.5-4.3c4,0,7.9,0,11.9,0c1.2,0,2.1-0.6,2.6-1.7
		c0.5-1.1,0.3-2.1-0.4-3c-0.6-0.8-1.5-1-2.4-1c-2.2,0-4.5,0.1-6.7-0.2c-5.1-0.8-9-5.2-9.4-10.4c-0.2-3.4,0.2-6.7,2.5-9.5
		c1.7-2.1,3.9-3.5,6.6-4.1c0.5-0.1,0.6-0.3,0.6-0.8c0-0.7,0-1.3,0.1-2c0.5-2.1,2.5-3.5,4.6-3.3c2.2,0.2,3.8,2,3.9,4.2
		c0,0.5,0,0.9,0,1.5c0.3,0,0.6,0.1,0.9,0.1c1.3,0,2.7,0,4,0c2.6,0.1,4.4,1.9,4.4,4.3c0,2.4-1.9,4.3-4.4,4.3c-3.8,0-7.6,0-11.4,0
		c-2.1,0-3.2,1.1-3.2,3.2c0,0.4,0,0.7,0,1.1c0.1,1.6,1.2,2.7,2.8,2.8s3.2,0,4.7,0c5.8,0,10.8,4.3,11.5,9.9c0.7,6-2.8,11.3-8.6,12.8
		C198,237.5,197.8,237.6,197.5,237.7z"/>
</g>
</svg>
